<mxfile host="app.diagrams.net" modified="2021-05-08T09:16:45.781Z" agent="5.0 (Windows NT 10.0; Win64; x64) AppleWebKit/537.36 (KHTML, like Gecko) Chrome/90.0.4430.93 Safari/537.36" etag="uooq6FQVh2s5ZJjfGcBF" version="14.6.10" type="github">
  <diagram id="pxTlINILCHUcjBvoJKog" name="Page-1">
    <mxGraphModel dx="2249" dy="1874" grid="1" gridSize="10" guides="1" tooltips="1" connect="1" arrows="1" fold="1" page="1" pageScale="1" pageWidth="827" pageHeight="1169" math="0" shadow="0">
      <root>
        <mxCell id="0" />
        <mxCell id="1" parent="0" />
        <mxCell id="6O94oGUFuKgIluvPSHn7-4" value="liefert_Eingabe" style="html=1;verticalAlign=bottom;endArrow=open;dashed=1;endSize=8;exitX=0.015;exitY=-0.269;exitDx=0;exitDy=0;exitPerimeter=0;" parent="1" source="6O94oGUFuKgIluvPSHn7-89" edge="1">
          <mxGeometry x="0.136" y="20" relative="1" as="geometry">
            <mxPoint x="-110" y="-677" as="sourcePoint" />
            <mxPoint x="-260" y="-729" as="targetPoint" />
            <mxPoint as="offset" />
            <Array as="points">
              <mxPoint x="-260" y="-824" />
            </Array>
          </mxGeometry>
        </mxCell>
        <mxCell id="6O94oGUFuKgIluvPSHn7-5" value="liefert_Eingabe" style="html=1;verticalAlign=bottom;endArrow=open;dashed=1;endSize=8;exitX=0.5;exitY=0;exitDx=0;exitDy=0;entryX=0.75;entryY=0;entryDx=0;entryDy=0;" parent="1" source="6O94oGUFuKgIluvPSHn7-26" target="6O94oGUFuKgIluvPSHn7-94" edge="1">
          <mxGeometry relative="1" as="geometry">
            <mxPoint x="-100" y="-726.996" as="sourcePoint" />
            <mxPoint x="-30" y="-611" as="targetPoint" />
            <Array as="points">
              <mxPoint x="40" y="-1007" />
              <mxPoint x="-570" y="-1007" />
            </Array>
          </mxGeometry>
        </mxCell>
        <mxCell id="6O94oGUFuKgIluvPSHn7-6" value="Navigiert_zu" style="html=1;verticalAlign=bottom;endArrow=open;dashed=1;endSize=8;entryX=0.5;entryY=0;entryDx=0;entryDy=0;exitX=0;exitY=0.25;exitDx=0;exitDy=0;" parent="1" source="6O94oGUFuKgIluvPSHn7-94" target="6O94oGUFuKgIluvPSHn7-35" edge="1">
          <mxGeometry relative="1" as="geometry">
            <mxPoint x="-690" y="-837" as="sourcePoint" />
            <mxPoint x="-150" y="-477" as="targetPoint" />
            <Array as="points">
              <mxPoint x="-720" y="-878" />
              <mxPoint x="-720" y="-567" />
              <mxPoint x="-450" y="-567" />
            </Array>
          </mxGeometry>
        </mxCell>
        <mxCell id="6O94oGUFuKgIluvPSHn7-14" value="Packages:" style="text;html=1;align=center;verticalAlign=middle;resizable=0;points=[];autosize=1;" parent="1" vertex="1">
          <mxGeometry x="-760" y="-260" width="70" height="20" as="geometry" />
        </mxCell>
        <mxCell id="6O94oGUFuKgIluvPSHn7-15" value="" style="endArrow=block;dashed=1;endFill=0;endSize=12;html=1;entryX=0.994;entryY=0.935;entryDx=0;entryDy=0;entryPerimeter=0;" parent="1" target="6O94oGUFuKgIluvPSHn7-138" edge="1">
          <mxGeometry width="160" relative="1" as="geometry">
            <mxPoint x="560" y="-567" as="sourcePoint" />
            <mxPoint x="337.7600000000002" y="-599.674" as="targetPoint" />
          </mxGeometry>
        </mxCell>
        <mxCell id="6O94oGUFuKgIluvPSHn7-16" value="" style="endArrow=classic;html=1;exitX=0;exitY=0.5;exitDx=0;exitDy=0;entryX=1;entryY=0.5;entryDx=0;entryDy=0;" parent="1" source="6O94oGUFuKgIluvPSHn7-138" target="6O94oGUFuKgIluvPSHn7-105" edge="1">
          <mxGeometry width="50" height="50" relative="1" as="geometry">
            <mxPoint x="232.63999999999987" y="-586.3979999999997" as="sourcePoint" />
            <mxPoint x="-110" y="-520" as="targetPoint" />
          </mxGeometry>
        </mxCell>
        <mxCell id="6O94oGUFuKgIluvPSHn7-18" value="" style="endArrow=none;dashed=1;html=1;entryX=0.548;entryY=1.239;entryDx=0;entryDy=0;entryPerimeter=0;exitX=0.5;exitY=0;exitDx=0;exitDy=0;" parent="1" source="6O94oGUFuKgIluvPSHn7-196" target="6O94oGUFuKgIluvPSHn7-154" edge="1">
          <mxGeometry width="50" height="50" relative="1" as="geometry">
            <mxPoint x="457" y="-347" as="sourcePoint" />
            <mxPoint x="456.7600000000002" y="-521.4159999999999" as="targetPoint" />
          </mxGeometry>
        </mxCell>
        <mxCell id="6O94oGUFuKgIluvPSHn7-25" value="&lt;p style=&quot;margin: 0px ; margin-top: 4px ; text-align: center&quot;&gt;&lt;b&gt;&amp;lt;dto&amp;gt;&lt;/b&gt;&lt;/p&gt;&lt;p style=&quot;margin: 0px ; margin-top: 4px ; text-align: center&quot;&gt;&lt;b&gt;LoginDaten&lt;/b&gt;&lt;/p&gt;&lt;hr size=&quot;1&quot;&gt;&lt;p style=&quot;margin: 0px ; margin-left: 4px&quot;&gt;+ field: Type&lt;/p&gt;&lt;hr size=&quot;1&quot;&gt;&lt;p style=&quot;margin: 0px ; margin-left: 4px&quot;&gt;+ method(): Type&lt;/p&gt;" style="verticalAlign=top;align=left;overflow=fill;fontSize=12;fontFamily=Helvetica;html=1;fillColor=#dae8fc;gradientColor=#ffffff;gradientDirection=south;" parent="1" vertex="1">
          <mxGeometry x="-350" y="-980" width="160" height="90" as="geometry" />
        </mxCell>
        <mxCell id="6O94oGUFuKgIluvPSHn7-26" value="&lt;b&gt;&#xa; Login_View" style="swimlane;fontStyle=1;align=center;verticalAlign=top;childLayout=stackLayout;horizontal=1;startSize=36;horizontalStack=0;resizeParent=1;resizeParentMax=0;resizeLast=0;collapsible=1;marginBottom=0;fillColor=#d5e8d4;strokeColor=#82b366;" parent="1" vertex="1">
          <mxGeometry x="30" y="-1050" width="160" height="96" as="geometry" />
        </mxCell>
        <mxCell id="6O94oGUFuKgIluvPSHn7-27" value="+ field: type" style="text;strokeColor=none;fillColor=none;align=left;verticalAlign=top;spacingLeft=4;spacingRight=4;overflow=hidden;rotatable=0;points=[[0,0.5],[1,0.5]];portConstraint=eastwest;" parent="6O94oGUFuKgIluvPSHn7-26" vertex="1">
          <mxGeometry y="36" width="160" height="26" as="geometry" />
        </mxCell>
        <mxCell id="6O94oGUFuKgIluvPSHn7-28" value="" style="line;strokeWidth=1;fillColor=none;align=left;verticalAlign=middle;spacingTop=-1;spacingLeft=3;spacingRight=3;rotatable=0;labelPosition=right;points=[];portConstraint=eastwest;" parent="6O94oGUFuKgIluvPSHn7-26" vertex="1">
          <mxGeometry y="62" width="160" height="8" as="geometry" />
        </mxCell>
        <mxCell id="6O94oGUFuKgIluvPSHn7-29" value="+ method(type): type" style="text;strokeColor=none;fillColor=none;align=left;verticalAlign=top;spacingLeft=4;spacingRight=4;overflow=hidden;rotatable=0;points=[[0,0.5],[1,0.5]];portConstraint=eastwest;" parent="6O94oGUFuKgIluvPSHn7-26" vertex="1">
          <mxGeometry y="70" width="160" height="26" as="geometry" />
        </mxCell>
        <mxCell id="6O94oGUFuKgIluvPSHn7-30" value="benötigt" style="endArrow=open;endSize=12;dashed=1;html=1;entryX=0;entryY=0.25;entryDx=0;entryDy=0;exitX=1;exitY=0;exitDx=0;exitDy=0;" parent="1" source="6O94oGUFuKgIluvPSHn7-94" target="6O94oGUFuKgIluvPSHn7-25" edge="1">
          <mxGeometry width="160" relative="1" as="geometry">
            <mxPoint x="10" y="-767" as="sourcePoint" />
            <mxPoint x="170" y="-767" as="targetPoint" />
            <Array as="points">
              <mxPoint x="-530" y="-954" />
            </Array>
          </mxGeometry>
        </mxCell>
        <mxCell id="6O94oGUFuKgIluvPSHn7-31" value="leifert" style="endArrow=open;endSize=12;dashed=1;html=1;exitX=0;exitY=0.5;exitDx=0;exitDy=0;" parent="1" source="6O94oGUFuKgIluvPSHn7-29" edge="1">
          <mxGeometry width="160" relative="1" as="geometry">
            <mxPoint x="10" y="-767" as="sourcePoint" />
            <mxPoint x="-180" y="-949" as="targetPoint" />
          </mxGeometry>
        </mxCell>
        <mxCell id="6O94oGUFuKgIluvPSHn7-32" value="&lt;p style=&quot;margin: 0px ; margin-top: 4px ; text-align: center&quot;&gt;&lt;b&gt;&amp;lt;dto&amp;gt;&lt;/b&gt;&lt;/p&gt;&lt;p style=&quot;margin: 0px ; margin-top: 4px ; text-align: center&quot;&gt;&lt;b&gt;RegistrierungDaten&lt;/b&gt;&lt;/p&gt;&lt;hr size=&quot;1&quot;&gt;&lt;p style=&quot;margin: 0px ; margin-left: 4px&quot;&gt;+ field: Type&lt;/p&gt;&lt;hr size=&quot;1&quot;&gt;&lt;p style=&quot;margin: 0px ; margin-left: 4px&quot;&gt;+ method(): Type&lt;/p&gt;" style="verticalAlign=top;align=left;overflow=fill;fontSize=12;fontFamily=Helvetica;html=1;fillColor=#dae8fc;gradientColor=#ffffff;gradientDirection=south;" parent="1" vertex="1">
          <mxGeometry x="-40" y="-750" width="160" height="90" as="geometry" />
        </mxCell>
        <mxCell id="6O94oGUFuKgIluvPSHn7-33" value="liefert" style="endArrow=open;endSize=12;dashed=1;html=1;entryX=0.25;entryY=0;entryDx=0;entryDy=0;exitX=0.635;exitY=0.987;exitDx=0;exitDy=0;exitPerimeter=0;" parent="1" source="6O94oGUFuKgIluvPSHn7-91" target="6O94oGUFuKgIluvPSHn7-32" edge="1">
          <mxGeometry width="160" relative="1" as="geometry">
            <mxPoint x="-230" y="-717" as="sourcePoint" />
            <mxPoint x="-70" y="-717" as="targetPoint" />
          </mxGeometry>
        </mxCell>
        <mxCell id="6O94oGUFuKgIluvPSHn7-34" value="benötigt" style="endArrow=open;endSize=12;dashed=1;html=1;exitX=1;exitY=0.25;exitDx=0;exitDy=0;entryX=-0.021;entryY=0.137;entryDx=0;entryDy=0;entryPerimeter=0;" parent="1" source="6O94oGUFuKgIluvPSHn7-102" target="6O94oGUFuKgIluvPSHn7-32" edge="1">
          <mxGeometry width="160" relative="1" as="geometry">
            <mxPoint x="-120" y="-586.4444783528645" as="sourcePoint" />
            <mxPoint x="-200" y="-707" as="targetPoint" />
          </mxGeometry>
        </mxCell>
        <mxCell id="6O94oGUFuKgIluvPSHn7-35" value="&lt;b&gt;&#xa;Startseite_View" style="swimlane;fontStyle=1;align=center;verticalAlign=top;childLayout=stackLayout;horizontal=1;startSize=36;horizontalStack=0;resizeParent=1;resizeParentMax=0;resizeLast=0;collapsible=1;marginBottom=0;fillColor=#d5e8d4;strokeColor=#82b366;" parent="1" vertex="1">
          <mxGeometry x="-530" y="-513" width="160" height="96" as="geometry" />
        </mxCell>
        <mxCell id="6O94oGUFuKgIluvPSHn7-36" value="+ field: type" style="text;strokeColor=none;fillColor=none;align=left;verticalAlign=top;spacingLeft=4;spacingRight=4;overflow=hidden;rotatable=0;points=[[0,0.5],[1,0.5]];portConstraint=eastwest;" parent="6O94oGUFuKgIluvPSHn7-35" vertex="1">
          <mxGeometry y="36" width="160" height="26" as="geometry" />
        </mxCell>
        <mxCell id="6O94oGUFuKgIluvPSHn7-37" value="" style="line;strokeWidth=1;fillColor=none;align=left;verticalAlign=middle;spacingTop=-1;spacingLeft=3;spacingRight=3;rotatable=0;labelPosition=right;points=[];portConstraint=eastwest;" parent="6O94oGUFuKgIluvPSHn7-35" vertex="1">
          <mxGeometry y="62" width="160" height="8" as="geometry" />
        </mxCell>
        <mxCell id="6O94oGUFuKgIluvPSHn7-38" value="+ method(type): type" style="text;strokeColor=none;fillColor=none;align=left;verticalAlign=top;spacingLeft=4;spacingRight=4;overflow=hidden;rotatable=0;points=[[0,0.5],[1,0.5]];portConstraint=eastwest;" parent="6O94oGUFuKgIluvPSHn7-35" vertex="1">
          <mxGeometry y="70" width="160" height="26" as="geometry" />
        </mxCell>
        <mxCell id="6O94oGUFuKgIluvPSHn7-59" value="Navigiert_zu" style="html=1;verticalAlign=bottom;endArrow=open;dashed=1;endSize=8;exitX=0.598;exitY=0.935;exitDx=0;exitDy=0;entryX=0.75;entryY=0;entryDx=0;entryDy=0;exitPerimeter=0;" parent="1" source="6O94oGUFuKgIluvPSHn7-105" target="6O94oGUFuKgIluvPSHn7-35" edge="1">
          <mxGeometry relative="1" as="geometry">
            <mxPoint x="-20" y="-677" as="sourcePoint" />
            <mxPoint x="-370" y="-517" as="targetPoint" />
            <Array as="points">
              <mxPoint x="-314" y="-567" />
              <mxPoint x="-410" y="-567" />
            </Array>
          </mxGeometry>
        </mxCell>
        <mxCell id="6O94oGUFuKgIluvPSHn7-88" value="&lt;b&gt; &#xa;Registrieren_View" style="swimlane;fontStyle=1;align=center;verticalAlign=top;childLayout=stackLayout;horizontal=1;startSize=40;horizontalStack=0;resizeParent=1;resizeParentMax=0;resizeLast=0;collapsible=1;marginBottom=0;fillColor=#d5e8d4;strokeColor=#82b366;" parent="1" vertex="1">
          <mxGeometry x="-210" y="-879" width="160" height="100" as="geometry" />
        </mxCell>
        <mxCell id="6O94oGUFuKgIluvPSHn7-89" value="+ field: type" style="text;strokeColor=none;fillColor=none;align=left;verticalAlign=top;spacingLeft=4;spacingRight=4;overflow=hidden;rotatable=0;points=[[0,0.5],[1,0.5]];portConstraint=eastwest;" parent="6O94oGUFuKgIluvPSHn7-88" vertex="1">
          <mxGeometry y="40" width="160" height="26" as="geometry" />
        </mxCell>
        <mxCell id="6O94oGUFuKgIluvPSHn7-90" value="" style="line;strokeWidth=1;fillColor=none;align=left;verticalAlign=middle;spacingTop=-1;spacingLeft=3;spacingRight=3;rotatable=0;labelPosition=right;points=[];portConstraint=eastwest;" parent="6O94oGUFuKgIluvPSHn7-88" vertex="1">
          <mxGeometry y="66" width="160" height="8" as="geometry" />
        </mxCell>
        <mxCell id="6O94oGUFuKgIluvPSHn7-91" value="+ method(type): type" style="text;strokeColor=none;fillColor=none;align=left;verticalAlign=top;spacingLeft=4;spacingRight=4;overflow=hidden;rotatable=0;points=[[0,0.5],[1,0.5]];portConstraint=eastwest;" parent="6O94oGUFuKgIluvPSHn7-88" vertex="1">
          <mxGeometry y="74" width="160" height="26" as="geometry" />
        </mxCell>
        <mxCell id="6O94oGUFuKgIluvPSHn7-92" value="greift_zu" style="endArrow=open;endSize=12;dashed=1;html=1;exitX=0;exitY=0.25;exitDx=0;exitDy=0;entryX=1.019;entryY=0.231;entryDx=0;entryDy=0;entryPerimeter=0;" parent="1" source="6O94oGUFuKgIluvPSHn7-102" target="6O94oGUFuKgIluvPSHn7-107" edge="1">
          <mxGeometry width="160" relative="1" as="geometry">
            <mxPoint x="-470" y="-697" as="sourcePoint" />
            <mxPoint x="-310" y="-697" as="targetPoint" />
          </mxGeometry>
        </mxCell>
        <mxCell id="6O94oGUFuKgIluvPSHn7-93" value="liefert_Erg" style="endArrow=open;endSize=12;dashed=1;html=1;exitX=1;exitY=0.75;exitDx=0;exitDy=0;" parent="1" source="6O94oGUFuKgIluvPSHn7-106" edge="1">
          <mxGeometry width="160" relative="1" as="geometry">
            <mxPoint x="-490" y="-647" as="sourcePoint" />
            <mxPoint x="-413" y="-643" as="targetPoint" />
          </mxGeometry>
        </mxCell>
        <mxCell id="6O94oGUFuKgIluvPSHn7-94" value="&lt;c&gt; &#xa;Login_Control" style="swimlane;fontStyle=1;align=center;verticalAlign=top;childLayout=stackLayout;horizontal=1;startSize=40;horizontalStack=0;resizeParent=1;resizeParentMax=0;resizeLast=0;collapsible=1;marginBottom=0;fillColor=#f8cecc;strokeColor=#b85450;" parent="1" vertex="1">
          <mxGeometry x="-690" y="-907" width="160" height="114" as="geometry" />
        </mxCell>
        <mxCell id="6O94oGUFuKgIluvPSHn7-95" value="+ field: type" style="text;strokeColor=none;fillColor=none;align=left;verticalAlign=top;spacingLeft=4;spacingRight=4;overflow=hidden;rotatable=0;points=[[0,0.5],[1,0.5]];portConstraint=eastwest;" parent="6O94oGUFuKgIluvPSHn7-94" vertex="1">
          <mxGeometry y="40" width="160" height="26" as="geometry" />
        </mxCell>
        <mxCell id="6O94oGUFuKgIluvPSHn7-96" value="" style="line;strokeWidth=1;fillColor=none;align=left;verticalAlign=middle;spacingTop=-1;spacingLeft=3;spacingRight=3;rotatable=0;labelPosition=right;points=[];portConstraint=eastwest;" parent="6O94oGUFuKgIluvPSHn7-94" vertex="1">
          <mxGeometry y="66" width="160" height="8" as="geometry" />
        </mxCell>
        <mxCell id="6O94oGUFuKgIluvPSHn7-97" value="+checkLogin()" style="text;strokeColor=none;fillColor=none;align=left;verticalAlign=top;spacingLeft=4;spacingRight=4;overflow=hidden;rotatable=0;points=[[0,0.5],[1,0.5]];portConstraint=eastwest;" parent="6O94oGUFuKgIluvPSHn7-94" vertex="1">
          <mxGeometry y="74" width="160" height="40" as="geometry" />
        </mxCell>
        <mxCell id="6O94oGUFuKgIluvPSHn7-98" value="UnternehmenDAO" style="swimlane;fontStyle=1;align=center;verticalAlign=top;childLayout=stackLayout;horizontal=1;startSize=26;horizontalStack=0;resizeParent=1;resizeParentMax=0;resizeLast=0;collapsible=1;marginBottom=0;fillColor=#e1d5e7;strokeColor=#9673a6;" parent="1" vertex="1">
          <mxGeometry x="-490" y="-877" width="160" height="110" as="geometry" />
        </mxCell>
        <mxCell id="6O94oGUFuKgIluvPSHn7-99" value="+ field: type" style="text;strokeColor=none;fillColor=none;align=left;verticalAlign=top;spacingLeft=4;spacingRight=4;overflow=hidden;rotatable=0;points=[[0,0.5],[1,0.5]];portConstraint=eastwest;" parent="6O94oGUFuKgIluvPSHn7-98" vertex="1">
          <mxGeometry y="26" width="160" height="26" as="geometry" />
        </mxCell>
        <mxCell id="6O94oGUFuKgIluvPSHn7-100" value="" style="line;strokeWidth=1;fillColor=none;align=left;verticalAlign=middle;spacingTop=-1;spacingLeft=3;spacingRight=3;rotatable=0;labelPosition=right;points=[];portConstraint=eastwest;" parent="6O94oGUFuKgIluvPSHn7-98" vertex="1">
          <mxGeometry y="52" width="160" height="8" as="geometry" />
        </mxCell>
        <mxCell id="6O94oGUFuKgIluvPSHn7-101" value="+getUnternehmen()&#xa;+createUnternehmen()&#xa;+deleteUnternehmen()" style="text;strokeColor=none;fillColor=none;align=left;verticalAlign=top;spacingLeft=4;spacingRight=4;overflow=hidden;rotatable=0;points=[[0,0.5],[1,0.5]];portConstraint=eastwest;" parent="6O94oGUFuKgIluvPSHn7-98" vertex="1">
          <mxGeometry y="60" width="160" height="50" as="geometry" />
        </mxCell>
        <mxCell id="6O94oGUFuKgIluvPSHn7-102" value="&lt;c&gt;&#xa;Registrierung_Control" style="swimlane;fontStyle=1;align=center;verticalAlign=top;childLayout=stackLayout;horizontal=1;startSize=50;horizontalStack=0;resizeParent=1;resizeParentMax=0;resizeLast=0;collapsible=1;marginBottom=0;fillColor=#f8cecc;strokeColor=#b85450;" parent="1" vertex="1">
          <mxGeometry x="-410" y="-727" width="160" height="140" as="geometry" />
        </mxCell>
        <mxCell id="6O94oGUFuKgIluvPSHn7-103" value="+ field: type" style="text;strokeColor=none;fillColor=none;align=left;verticalAlign=top;spacingLeft=4;spacingRight=4;overflow=hidden;rotatable=0;points=[[0,0.5],[1,0.5]];portConstraint=eastwest;" parent="6O94oGUFuKgIluvPSHn7-102" vertex="1">
          <mxGeometry y="50" width="160" height="26" as="geometry" />
        </mxCell>
        <mxCell id="6O94oGUFuKgIluvPSHn7-104" value="" style="line;strokeWidth=1;fillColor=none;align=left;verticalAlign=middle;spacingTop=-1;spacingLeft=3;spacingRight=3;rotatable=0;labelPosition=right;points=[];portConstraint=eastwest;" parent="6O94oGUFuKgIluvPSHn7-102" vertex="1">
          <mxGeometry y="76" width="160" height="8" as="geometry" />
        </mxCell>
        <mxCell id="6O94oGUFuKgIluvPSHn7-105" value="+checkRegVorhanden()&#xa;+checkRegVollständig()" style="text;strokeColor=none;fillColor=none;align=left;verticalAlign=top;spacingLeft=4;spacingRight=4;overflow=hidden;rotatable=0;points=[[0,0.5],[1,0.5]];portConstraint=eastwest;" parent="6O94oGUFuKgIluvPSHn7-102" vertex="1">
          <mxGeometry y="84" width="160" height="56" as="geometry" />
        </mxCell>
        <mxCell id="6O94oGUFuKgIluvPSHn7-106" value="StudentenDAO" style="swimlane;fontStyle=1;align=center;verticalAlign=top;childLayout=stackLayout;horizontal=1;startSize=26;horizontalStack=0;resizeParent=1;resizeParentMax=0;resizeLast=0;collapsible=1;marginBottom=0;fillColor=#e1d5e7;strokeColor=#9673a6;" parent="1" vertex="1">
          <mxGeometry x="-670" y="-726" width="160" height="110" as="geometry" />
        </mxCell>
        <mxCell id="6O94oGUFuKgIluvPSHn7-107" value="+ field: type" style="text;strokeColor=none;fillColor=none;align=left;verticalAlign=top;spacingLeft=4;spacingRight=4;overflow=hidden;rotatable=0;points=[[0,0.5],[1,0.5]];portConstraint=eastwest;" parent="6O94oGUFuKgIluvPSHn7-106" vertex="1">
          <mxGeometry y="26" width="160" height="26" as="geometry" />
        </mxCell>
        <mxCell id="6O94oGUFuKgIluvPSHn7-108" value="" style="line;strokeWidth=1;fillColor=none;align=left;verticalAlign=middle;spacingTop=-1;spacingLeft=3;spacingRight=3;rotatable=0;labelPosition=right;points=[];portConstraint=eastwest;" parent="6O94oGUFuKgIluvPSHn7-106" vertex="1">
          <mxGeometry y="52" width="160" height="8" as="geometry" />
        </mxCell>
        <mxCell id="6O94oGUFuKgIluvPSHn7-109" value="+getStrudent()&#xa;+createStudent()&#xa;+deleteStudent()" style="text;strokeColor=none;fillColor=none;align=left;verticalAlign=top;spacingLeft=4;spacingRight=4;overflow=hidden;rotatable=0;points=[[0,0.5],[1,0.5]];portConstraint=eastwest;" parent="6O94oGUFuKgIluvPSHn7-106" vertex="1">
          <mxGeometry y="60" width="160" height="50" as="geometry" />
        </mxCell>
        <mxCell id="6O94oGUFuKgIluvPSHn7-110" value="greift_zu" style="endArrow=open;endSize=12;dashed=1;html=1;entryX=0.25;entryY=0;entryDx=0;entryDy=0;" parent="1" target="6O94oGUFuKgIluvPSHn7-106" edge="1">
          <mxGeometry width="160" relative="1" as="geometry">
            <mxPoint x="-630" y="-789" as="sourcePoint" />
            <mxPoint x="-500" y="-688.5" as="targetPoint" />
          </mxGeometry>
        </mxCell>
        <mxCell id="6O94oGUFuKgIluvPSHn7-111" value="liefert_Erg" style="endArrow=open;endSize=12;dashed=1;html=1;entryX=0.777;entryY=0.975;entryDx=0;entryDy=0;entryPerimeter=0;exitX=0.644;exitY=0.018;exitDx=0;exitDy=0;exitPerimeter=0;" parent="1" source="6O94oGUFuKgIluvPSHn7-106" target="6O94oGUFuKgIluvPSHn7-97" edge="1">
          <mxGeometry width="160" relative="1" as="geometry">
            <mxPoint x="-500" y="-633.5" as="sourcePoint" />
            <mxPoint x="-403.03999999999996" y="-640" as="targetPoint" />
          </mxGeometry>
        </mxCell>
        <mxCell id="6O94oGUFuKgIluvPSHn7-112" value="liefert_Erg" style="endArrow=open;endSize=12;dashed=1;html=1;entryX=0.99;entryY=0.192;entryDx=0;entryDy=0;entryPerimeter=0;" parent="1" target="6O94oGUFuKgIluvPSHn7-95" edge="1">
          <mxGeometry x="-0.3416" y="-18" width="160" relative="1" as="geometry">
            <mxPoint x="-490" y="-862" as="sourcePoint" />
            <mxPoint x="-393.03999999999996" y="-630" as="targetPoint" />
            <mxPoint as="offset" />
          </mxGeometry>
        </mxCell>
        <mxCell id="6O94oGUFuKgIluvPSHn7-113" value="liefert_Erg" style="endArrow=open;endSize=12;dashed=1;html=1;entryX=0.25;entryY=0;entryDx=0;entryDy=0;" parent="1" target="6O94oGUFuKgIluvPSHn7-102" edge="1">
          <mxGeometry width="160" relative="1" as="geometry">
            <mxPoint x="-370" y="-765" as="sourcePoint" />
            <mxPoint x="-383.03999999999996" y="-620" as="targetPoint" />
          </mxGeometry>
        </mxCell>
        <mxCell id="6O94oGUFuKgIluvPSHn7-114" value="greift_zu" style="endArrow=open;endSize=12;dashed=1;html=1;exitX=0.998;exitY=0.175;exitDx=0;exitDy=0;exitPerimeter=0;" parent="1" source="6O94oGUFuKgIluvPSHn7-97" edge="1">
          <mxGeometry x="0.0374" y="-12" width="160" relative="1" as="geometry">
            <mxPoint x="-626.4" y="-792.6800000000001" as="sourcePoint" />
            <mxPoint x="-490" y="-827" as="targetPoint" />
            <mxPoint as="offset" />
          </mxGeometry>
        </mxCell>
        <mxCell id="6O94oGUFuKgIluvPSHn7-115" value="greift_zu" style="endArrow=open;endSize=12;dashed=1;html=1;entryX=1;entryY=0.5;entryDx=0;entryDy=0;" parent="1" target="6O94oGUFuKgIluvPSHn7-99" edge="1">
          <mxGeometry width="160" relative="1" as="geometry">
            <mxPoint x="-300" y="-727" as="sourcePoint" />
            <mxPoint x="-610" y="-706" as="targetPoint" />
            <Array as="points">
              <mxPoint x="-300" y="-837" />
            </Array>
          </mxGeometry>
        </mxCell>
        <mxCell id="6O94oGUFuKgIluvPSHn7-124" value="&lt;e&gt;&#xa;User" style="swimlane;fontStyle=0;childLayout=stackLayout;horizontal=1;startSize=40;horizontalStack=0;resizeParent=1;resizeParentMax=0;resizeLast=0;collapsible=1;marginBottom=0;align=center;fontSize=14;fillColor=#fff2cc;strokeColor=#d6b656;gradientColor=#ffd966;" parent="1" vertex="1">
          <mxGeometry x="180" y="-879" width="160" height="348" as="geometry" />
        </mxCell>
        <mxCell id="6O94oGUFuKgIluvPSHn7-125" value="userId : int&#xa;" style="text;strokeColor=none;fillColor=none;spacingLeft=4;spacingRight=4;overflow=hidden;rotatable=0;points=[[0,0.5],[1,0.5]];portConstraint=eastwest;fontSize=12;fontStyle=4" parent="6O94oGUFuKgIluvPSHn7-124" vertex="1">
          <mxGeometry y="40" width="160" height="26" as="geometry" />
        </mxCell>
        <mxCell id="6O94oGUFuKgIluvPSHn7-126" value="passwort : String" style="text;strokeColor=none;fillColor=none;spacingLeft=4;spacingRight=4;overflow=hidden;rotatable=0;points=[[0,0.5],[1,0.5]];portConstraint=eastwest;fontSize=12;" parent="6O94oGUFuKgIluvPSHn7-124" vertex="1">
          <mxGeometry y="66" width="160" height="26" as="geometry" />
        </mxCell>
        <mxCell id="6O94oGUFuKgIluvPSHn7-127" value="anschrift : String" style="text;strokeColor=none;fillColor=none;spacingLeft=4;spacingRight=4;overflow=hidden;rotatable=0;points=[[0,0.5],[1,0.5]];portConstraint=eastwest;fontSize=12;" parent="6O94oGUFuKgIluvPSHn7-124" vertex="1">
          <mxGeometry y="92" width="160" height="26" as="geometry" />
        </mxCell>
        <mxCell id="6O94oGUFuKgIluvPSHn7-128" value="strasse : String" style="shape=partialRectangle;top=0;left=0;right=0;bottom=0;align=left;verticalAlign=top;fillColor=none;spacingLeft=34;spacingRight=4;overflow=hidden;rotatable=0;points=[[0,0.5],[1,0.5]];portConstraint=eastwest;dropTarget=0;fontSize=12;" parent="6O94oGUFuKgIluvPSHn7-124" vertex="1">
          <mxGeometry y="118" width="160" height="26" as="geometry" />
        </mxCell>
        <mxCell id="6O94oGUFuKgIluvPSHn7-129" value="" style="shape=partialRectangle;top=0;left=0;bottom=0;right=0;fillColor=none;align=left;verticalAlign=top;spacingLeft=4;spacingRight=4;overflow=hidden;rotatable=0;points=[];portConstraint=eastwest;part=1;fontSize=12;" parent="6O94oGUFuKgIluvPSHn7-128" vertex="1" connectable="0">
          <mxGeometry width="30" height="26" as="geometry" />
        </mxCell>
        <mxCell id="6O94oGUFuKgIluvPSHn7-130" value="hausnr. : int" style="shape=partialRectangle;top=0;left=0;right=0;bottom=0;align=left;verticalAlign=top;fillColor=none;spacingLeft=34;spacingRight=4;overflow=hidden;rotatable=0;points=[[0,0.5],[1,0.5]];portConstraint=eastwest;dropTarget=0;fontSize=12;" parent="6O94oGUFuKgIluvPSHn7-124" vertex="1">
          <mxGeometry y="144" width="160" height="26" as="geometry" />
        </mxCell>
        <mxCell id="6O94oGUFuKgIluvPSHn7-131" value="" style="shape=partialRectangle;top=0;left=0;bottom=0;right=0;fillColor=none;align=left;verticalAlign=top;spacingLeft=4;spacingRight=4;overflow=hidden;rotatable=0;points=[];portConstraint=eastwest;part=1;fontSize=12;" parent="6O94oGUFuKgIluvPSHn7-130" vertex="1" connectable="0">
          <mxGeometry width="30" height="26" as="geometry" />
        </mxCell>
        <mxCell id="6O94oGUFuKgIluvPSHn7-132" value="plz . int" style="shape=partialRectangle;top=0;left=0;right=0;bottom=0;align=left;verticalAlign=top;fillColor=none;spacingLeft=34;spacingRight=4;overflow=hidden;rotatable=0;points=[[0,0.5],[1,0.5]];portConstraint=eastwest;dropTarget=0;fontSize=12;" parent="6O94oGUFuKgIluvPSHn7-124" vertex="1">
          <mxGeometry y="170" width="160" height="26" as="geometry" />
        </mxCell>
        <mxCell id="6O94oGUFuKgIluvPSHn7-133" value="" style="shape=partialRectangle;top=0;left=0;bottom=0;right=0;fillColor=none;align=left;verticalAlign=top;spacingLeft=4;spacingRight=4;overflow=hidden;rotatable=0;points=[];portConstraint=eastwest;part=1;fontSize=12;" parent="6O94oGUFuKgIluvPSHn7-132" vertex="1" connectable="0">
          <mxGeometry width="30" height="26" as="geometry" />
        </mxCell>
        <mxCell id="6O94oGUFuKgIluvPSHn7-134" value="ort : String" style="shape=partialRectangle;top=0;left=0;right=0;bottom=0;align=left;verticalAlign=top;fillColor=none;spacingLeft=34;spacingRight=4;overflow=hidden;rotatable=0;points=[[0,0.5],[1,0.5]];portConstraint=eastwest;dropTarget=0;fontSize=12;" parent="6O94oGUFuKgIluvPSHn7-124" vertex="1">
          <mxGeometry y="196" width="160" height="30" as="geometry" />
        </mxCell>
        <mxCell id="6O94oGUFuKgIluvPSHn7-135" value="" style="shape=partialRectangle;top=0;left=0;bottom=0;right=0;fillColor=none;align=left;verticalAlign=top;spacingLeft=4;spacingRight=4;overflow=hidden;rotatable=0;points=[];portConstraint=eastwest;part=1;fontSize=12;" parent="6O94oGUFuKgIluvPSHn7-134" vertex="1" connectable="0">
          <mxGeometry width="30" height="29.999999999999996" as="geometry" />
        </mxCell>
        <mxCell id="6O94oGUFuKgIluvPSHn7-136" value="emailadresse : String" style="text;strokeColor=none;fillColor=none;spacingLeft=4;spacingRight=4;overflow=hidden;rotatable=0;points=[[0,0.5],[1,0.5]];portConstraint=eastwest;fontSize=12;" parent="6O94oGUFuKgIluvPSHn7-124" vertex="1">
          <mxGeometry y="226" width="160" height="26" as="geometry" />
        </mxCell>
        <mxCell id="6O94oGUFuKgIluvPSHn7-137" value="telNr : String" style="text;strokeColor=none;fillColor=none;spacingLeft=4;spacingRight=4;overflow=hidden;rotatable=0;points=[[0,0.5],[1,0.5]];portConstraint=eastwest;fontSize=12;" parent="6O94oGUFuKgIluvPSHn7-124" vertex="1">
          <mxGeometry y="252" width="160" height="26" as="geometry" />
        </mxCell>
        <mxCell id="6O94oGUFuKgIluvPSHn7-138" value="kurzvorstellung : String" style="text;strokeColor=none;fillColor=none;spacingLeft=4;spacingRight=4;overflow=hidden;rotatable=0;points=[[0,0.5],[1,0.5]];portConstraint=eastwest;fontSize=12;" parent="6O94oGUFuKgIluvPSHn7-124" vertex="1">
          <mxGeometry y="278" width="160" height="36" as="geometry" />
        </mxCell>
        <mxCell id="6O94oGUFuKgIluvPSHn7-139" value="" style="line;strokeWidth=1;fillColor=none;align=left;verticalAlign=middle;spacingTop=-1;spacingLeft=3;spacingRight=3;rotatable=0;labelPosition=right;points=[];portConstraint=eastwest;" parent="6O94oGUFuKgIluvPSHn7-124" vertex="1">
          <mxGeometry y="314" width="160" height="8" as="geometry" />
        </mxCell>
        <mxCell id="6O94oGUFuKgIluvPSHn7-140" value="+ method(type): type" style="text;strokeColor=none;fillColor=none;align=left;verticalAlign=top;spacingLeft=4;spacingRight=4;overflow=hidden;rotatable=0;points=[[0,0.5],[1,0.5]];portConstraint=eastwest;" parent="6O94oGUFuKgIluvPSHn7-124" vertex="1">
          <mxGeometry y="322" width="160" height="26" as="geometry" />
        </mxCell>
        <mxCell id="6O94oGUFuKgIluvPSHn7-141" value="&lt;e&gt;&#xa;Student" style="swimlane;fontStyle=0;childLayout=stackLayout;horizontal=1;startSize=42;horizontalStack=0;resizeParent=1;resizeParentMax=0;resizeLast=0;collapsible=1;marginBottom=0;align=center;fontSize=14;fillColor=#fff2cc;strokeColor=#d6b656;gradientColor=#ffd966;" parent="1" vertex="1">
          <mxGeometry x="440" y="-967" width="210" height="362" as="geometry">
            <mxRectangle x="80" y="640" width="80" height="22" as="alternateBounds" />
          </mxGeometry>
        </mxCell>
        <mxCell id="6O94oGUFuKgIluvPSHn7-142" value="userId : int" style="text;strokeColor=none;fillColor=none;spacingLeft=4;spacingRight=4;overflow=hidden;rotatable=0;points=[[0,0.5],[1,0.5]];portConstraint=eastwest;fontSize=12;" parent="6O94oGUFuKgIluvPSHn7-141" vertex="1">
          <mxGeometry y="42" width="210" height="26" as="geometry" />
        </mxCell>
        <mxCell id="6O94oGUFuKgIluvPSHn7-143" value="anrede : String" style="text;strokeColor=none;fillColor=none;spacingLeft=4;spacingRight=4;overflow=hidden;rotatable=0;points=[[0,0.5],[1,0.5]];portConstraint=eastwest;fontSize=12;" parent="6O94oGUFuKgIluvPSHn7-141" vertex="1">
          <mxGeometry y="68" width="210" height="26" as="geometry" />
        </mxCell>
        <mxCell id="6O94oGUFuKgIluvPSHn7-144" value="matr : int" style="text;strokeColor=none;fillColor=none;spacingLeft=4;spacingRight=4;overflow=hidden;rotatable=0;points=[[0,0.5],[1,0.5]];portConstraint=eastwest;fontSize=12;fontStyle=4" parent="6O94oGUFuKgIluvPSHn7-141" vertex="1">
          <mxGeometry y="94" width="210" height="26" as="geometry" />
        </mxCell>
        <mxCell id="6O94oGUFuKgIluvPSHn7-145" value="studiengang : String" style="text;strokeColor=none;fillColor=none;spacingLeft=4;spacingRight=4;overflow=hidden;rotatable=0;points=[[0,0.5],[1,0.5]];portConstraint=eastwest;fontSize=12;" parent="6O94oGUFuKgIluvPSHn7-141" vertex="1">
          <mxGeometry y="120" width="210" height="26" as="geometry" />
        </mxCell>
        <mxCell id="6O94oGUFuKgIluvPSHn7-146" value="vorname" style="text;strokeColor=none;fillColor=none;spacingLeft=4;spacingRight=4;overflow=hidden;rotatable=0;points=[[0,0.5],[1,0.5]];portConstraint=eastwest;fontSize=12;" parent="6O94oGUFuKgIluvPSHn7-141" vertex="1">
          <mxGeometry y="146" width="210" height="26" as="geometry" />
        </mxCell>
        <mxCell id="6O94oGUFuKgIluvPSHn7-147" value="nachname : String" style="text;strokeColor=none;fillColor=none;spacingLeft=4;spacingRight=4;overflow=hidden;rotatable=0;points=[[0,0.5],[1,0.5]];portConstraint=eastwest;fontSize=12;" parent="6O94oGUFuKgIluvPSHn7-141" vertex="1">
          <mxGeometry y="172" width="210" height="26" as="geometry" />
        </mxCell>
        <mxCell id="6O94oGUFuKgIluvPSHn7-148" value="gebDatum : String" style="text;strokeColor=none;fillColor=none;spacingLeft=4;spacingRight=4;overflow=hidden;rotatable=0;points=[[0,0.5],[1,0.5]];portConstraint=eastwest;fontSize=12;" parent="6O94oGUFuKgIluvPSHn7-141" vertex="1">
          <mxGeometry y="198" width="210" height="26" as="geometry" />
        </mxCell>
        <mxCell id="6O94oGUFuKgIluvPSHn7-149" value="profiltyp : ProfilTyp" style="text;strokeColor=none;fillColor=none;spacingLeft=4;spacingRight=4;overflow=hidden;rotatable=0;points=[[0,0.5],[1,0.5]];portConstraint=eastwest;fontSize=12;" parent="6O94oGUFuKgIluvPSHn7-141" vertex="1">
          <mxGeometry y="224" width="210" height="26" as="geometry" />
        </mxCell>
        <mxCell id="6O94oGUFuKgIluvPSHn7-150" value="bewerbungen: Liste&lt;Bewerbungen&gt;" style="text;strokeColor=none;fillColor=none;spacingLeft=4;spacingRight=4;overflow=hidden;rotatable=0;points=[[0,0.5],[1,0.5]];portConstraint=eastwest;fontSize=12;" parent="6O94oGUFuKgIluvPSHn7-141" vertex="1">
          <mxGeometry y="250" width="210" height="26" as="geometry" />
        </mxCell>
        <mxCell id="6O94oGUFuKgIluvPSHn7-151" value="//faehigkeiten : String" style="text;strokeColor=none;fillColor=none;spacingLeft=4;spacingRight=4;overflow=hidden;rotatable=0;points=[[0,0.5],[1,0.5]];portConstraint=eastwest;fontSize=12;" parent="6O94oGUFuKgIluvPSHn7-141" vertex="1">
          <mxGeometry y="276" width="210" height="26" as="geometry" />
        </mxCell>
        <mxCell id="6O94oGUFuKgIluvPSHn7-152" value="//interessen : String" style="text;strokeColor=none;fillColor=none;spacingLeft=4;spacingRight=4;overflow=hidden;rotatable=0;points=[[0,0.5],[1,0.5]];portConstraint=eastwest;fontSize=12;" parent="6O94oGUFuKgIluvPSHn7-141" vertex="1">
          <mxGeometry y="302" width="210" height="26" as="geometry" />
        </mxCell>
        <mxCell id="6O94oGUFuKgIluvPSHn7-153" value="" style="line;strokeWidth=1;fillColor=none;align=left;verticalAlign=middle;spacingTop=-1;spacingLeft=3;spacingRight=3;rotatable=0;labelPosition=right;points=[];portConstraint=eastwest;fontSize=12;" parent="6O94oGUFuKgIluvPSHn7-141" vertex="1">
          <mxGeometry y="328" width="210" height="8" as="geometry" />
        </mxCell>
        <mxCell id="6O94oGUFuKgIluvPSHn7-154" value="+ methoden() : type" style="text;strokeColor=none;fillColor=none;spacingLeft=4;spacingRight=4;overflow=hidden;rotatable=0;points=[[0,0.5],[1,0.5]];portConstraint=eastwest;fontSize=12;" parent="6O94oGUFuKgIluvPSHn7-141" vertex="1">
          <mxGeometry y="336" width="210" height="26" as="geometry" />
        </mxCell>
        <mxCell id="6O94oGUFuKgIluvPSHn7-171" value="&lt;p style=&quot;margin: 0px ; margin-top: 4px ; text-align: center&quot;&gt;&lt;b&gt;ho.model.dto&lt;/b&gt;&lt;/p&gt;&lt;hr size=&quot;1&quot;&gt;&lt;p style=&quot;margin: 0px ; margin-left: 4px&quot;&gt;+ field: Type&lt;/p&gt;&lt;hr size=&quot;1&quot;&gt;&lt;p style=&quot;margin: 0px ; margin-left: 4px&quot;&gt;+ method(): Type&lt;/p&gt;" style="verticalAlign=top;align=left;overflow=fill;fontSize=12;fontFamily=Helvetica;html=1;fillColor=#dae8fc;gradientColor=#ffffff;gradientDirection=south;" parent="1" vertex="1">
          <mxGeometry x="-790" y="-124" width="160" height="90" as="geometry" />
        </mxCell>
        <mxCell id="6O94oGUFuKgIluvPSHn7-196" value="&lt;e&gt;&#xa;Unternehmen" style="swimlane;fontStyle=0;childLayout=stackLayout;horizontal=1;startSize=50;horizontalStack=0;resizeParent=1;resizeParentMax=0;resizeLast=0;collapsible=1;marginBottom=0;align=center;fontSize=14;fillColor=#fff2cc;strokeColor=#d6b656;gradientColor=#ffd966;" parent="1" vertex="1">
          <mxGeometry x="440" y="-540" width="230" height="240" as="geometry" />
        </mxCell>
        <mxCell id="6O94oGUFuKgIluvPSHn7-197" value="unternehmenId : int" style="text;strokeColor=none;fillColor=none;spacingLeft=4;spacingRight=4;overflow=hidden;rotatable=0;points=[[0,0.5],[1,0.5]];portConstraint=eastwest;fontSize=12;fontStyle=4" parent="6O94oGUFuKgIluvPSHn7-196" vertex="1">
          <mxGeometry y="50" width="230" height="26" as="geometry" />
        </mxCell>
        <mxCell id="6O94oGUFuKgIluvPSHn7-198" value="userId : int" style="text;strokeColor=none;fillColor=none;spacingLeft=4;spacingRight=4;overflow=hidden;rotatable=0;points=[[0,0.5],[1,0.5]];portConstraint=eastwest;fontSize=12;" parent="6O94oGUFuKgIluvPSHn7-196" vertex="1">
          <mxGeometry y="76" width="230" height="26" as="geometry" />
        </mxCell>
        <mxCell id="6O94oGUFuKgIluvPSHn7-199" value="firmenname : String" style="text;strokeColor=none;fillColor=none;spacingLeft=4;spacingRight=4;overflow=hidden;rotatable=0;points=[[0,0.5],[1,0.5]];portConstraint=eastwest;fontSize=12;" parent="6O94oGUFuKgIluvPSHn7-196" vertex="1">
          <mxGeometry y="102" width="230" height="26" as="geometry" />
        </mxCell>
        <mxCell id="6O94oGUFuKgIluvPSHn7-200" value="branche : String" style="text;strokeColor=none;fillColor=none;spacingLeft=4;spacingRight=4;overflow=hidden;rotatable=0;points=[[0,0.5],[1,0.5]];portConstraint=eastwest;fontSize=12;" parent="6O94oGUFuKgIluvPSHn7-196" vertex="1">
          <mxGeometry y="128" width="230" height="26" as="geometry" />
        </mxCell>
        <mxCell id="6O94oGUFuKgIluvPSHn7-201" value="handelsregistereinttrag : String" style="text;strokeColor=none;fillColor=none;spacingLeft=4;spacingRight=4;overflow=hidden;rotatable=0;points=[[0,0.5],[1,0.5]];portConstraint=eastwest;fontSize=12;" parent="6O94oGUFuKgIluvPSHn7-196" vertex="1">
          <mxGeometry y="154" width="230" height="26" as="geometry" />
        </mxCell>
        <mxCell id="6O94oGUFuKgIluvPSHn7-202" value="stellenangebote : Liste&lt;Stellenangebote&gt;" style="text;strokeColor=none;fillColor=none;spacingLeft=4;spacingRight=4;overflow=hidden;rotatable=0;points=[[0,0.5],[1,0.5]];portConstraint=eastwest;fontSize=12;" parent="6O94oGUFuKgIluvPSHn7-196" vertex="1">
          <mxGeometry y="180" width="230" height="26" as="geometry" />
        </mxCell>
        <mxCell id="6O94oGUFuKgIluvPSHn7-203" value="" style="line;strokeWidth=1;fillColor=none;align=left;verticalAlign=middle;spacingTop=-1;spacingLeft=3;spacingRight=3;rotatable=0;labelPosition=right;points=[];portConstraint=eastwest;" parent="6O94oGUFuKgIluvPSHn7-196" vertex="1">
          <mxGeometry y="206" width="230" height="8" as="geometry" />
        </mxCell>
        <mxCell id="6O94oGUFuKgIluvPSHn7-204" value="+methode() : type" style="text;strokeColor=none;fillColor=none;spacingLeft=4;spacingRight=4;overflow=hidden;rotatable=0;points=[[0,0.5],[1,0.5]];portConstraint=eastwest;fontSize=12;" parent="6O94oGUFuKgIluvPSHn7-196" vertex="1">
          <mxGeometry y="214" width="230" height="26" as="geometry" />
        </mxCell>
        <mxCell id="6O94oGUFuKgIluvPSHn7-213" value="ho.model" style="swimlane;fontStyle=1;align=center;verticalAlign=top;childLayout=stackLayout;horizontal=1;startSize=26;horizontalStack=0;resizeParent=1;resizeParentMax=0;resizeLast=0;collapsible=1;marginBottom=0;fillColor=#fff2cc;strokeColor=#d6b656;gradientColor=#ffd966;" parent="1" vertex="1">
          <mxGeometry x="-450" y="-234" width="160" height="86" as="geometry" />
        </mxCell>
        <mxCell id="6O94oGUFuKgIluvPSHn7-214" value="+ field: type" style="text;strokeColor=none;fillColor=none;align=left;verticalAlign=top;spacingLeft=4;spacingRight=4;overflow=hidden;rotatable=0;points=[[0,0.5],[1,0.5]];portConstraint=eastwest;" parent="6O94oGUFuKgIluvPSHn7-213" vertex="1">
          <mxGeometry y="26" width="160" height="26" as="geometry" />
        </mxCell>
        <mxCell id="6O94oGUFuKgIluvPSHn7-215" value="" style="line;strokeWidth=1;fillColor=none;align=left;verticalAlign=middle;spacingTop=-1;spacingLeft=3;spacingRight=3;rotatable=0;labelPosition=right;points=[];portConstraint=eastwest;" parent="6O94oGUFuKgIluvPSHn7-213" vertex="1">
          <mxGeometry y="52" width="160" height="8" as="geometry" />
        </mxCell>
        <mxCell id="6O94oGUFuKgIluvPSHn7-216" value="+ method(type): type" style="text;strokeColor=none;fillColor=none;align=left;verticalAlign=top;spacingLeft=4;spacingRight=4;overflow=hidden;rotatable=0;points=[[0,0.5],[1,0.5]];portConstraint=eastwest;" parent="6O94oGUFuKgIluvPSHn7-213" vertex="1">
          <mxGeometry y="60" width="160" height="26" as="geometry" />
        </mxCell>
        <mxCell id="6O94oGUFuKgIluvPSHn7-217" value="ho.gui.views" style="swimlane;fontStyle=1;align=center;verticalAlign=top;childLayout=stackLayout;horizontal=1;startSize=26;horizontalStack=0;resizeParent=1;resizeParentMax=0;resizeLast=0;collapsible=1;marginBottom=0;fillColor=#d5e8d4;strokeColor=#82b366;" parent="1" vertex="1">
          <mxGeometry x="-620" y="-234" width="160" height="86" as="geometry" />
        </mxCell>
        <mxCell id="6O94oGUFuKgIluvPSHn7-218" value="+ field: type" style="text;strokeColor=none;fillColor=none;align=left;verticalAlign=top;spacingLeft=4;spacingRight=4;overflow=hidden;rotatable=0;points=[[0,0.5],[1,0.5]];portConstraint=eastwest;" parent="6O94oGUFuKgIluvPSHn7-217" vertex="1">
          <mxGeometry y="26" width="160" height="26" as="geometry" />
        </mxCell>
        <mxCell id="6O94oGUFuKgIluvPSHn7-219" value="" style="line;strokeWidth=1;fillColor=none;align=left;verticalAlign=middle;spacingTop=-1;spacingLeft=3;spacingRight=3;rotatable=0;labelPosition=right;points=[];portConstraint=eastwest;" parent="6O94oGUFuKgIluvPSHn7-217" vertex="1">
          <mxGeometry y="52" width="160" height="8" as="geometry" />
        </mxCell>
        <mxCell id="6O94oGUFuKgIluvPSHn7-220" value="+ method(type): type" style="text;strokeColor=none;fillColor=none;align=left;verticalAlign=top;spacingLeft=4;spacingRight=4;overflow=hidden;rotatable=0;points=[[0,0.5],[1,0.5]];portConstraint=eastwest;" parent="6O94oGUFuKgIluvPSHn7-217" vertex="1">
          <mxGeometry y="60" width="160" height="26" as="geometry" />
        </mxCell>
        <mxCell id="6O94oGUFuKgIluvPSHn7-221" value="ho.model.dao" style="swimlane;fontStyle=1;align=center;verticalAlign=top;childLayout=stackLayout;horizontal=1;startSize=26;horizontalStack=0;resizeParent=1;resizeParentMax=0;resizeLast=0;collapsible=1;marginBottom=0;fillColor=#e1d5e7;strokeColor=#9673a6;" parent="1" vertex="1">
          <mxGeometry x="-620" y="-122" width="160" height="86" as="geometry" />
        </mxCell>
        <mxCell id="6O94oGUFuKgIluvPSHn7-222" value="+ field: type" style="text;strokeColor=none;fillColor=none;align=left;verticalAlign=top;spacingLeft=4;spacingRight=4;overflow=hidden;rotatable=0;points=[[0,0.5],[1,0.5]];portConstraint=eastwest;" parent="6O94oGUFuKgIluvPSHn7-221" vertex="1">
          <mxGeometry y="26" width="160" height="26" as="geometry" />
        </mxCell>
        <mxCell id="6O94oGUFuKgIluvPSHn7-223" value="" style="line;strokeWidth=1;fillColor=none;align=left;verticalAlign=middle;spacingTop=-1;spacingLeft=3;spacingRight=3;rotatable=0;labelPosition=right;points=[];portConstraint=eastwest;" parent="6O94oGUFuKgIluvPSHn7-221" vertex="1">
          <mxGeometry y="52" width="160" height="8" as="geometry" />
        </mxCell>
        <mxCell id="6O94oGUFuKgIluvPSHn7-224" value="+ method(type): type" style="text;strokeColor=none;fillColor=none;align=left;verticalAlign=top;spacingLeft=4;spacingRight=4;overflow=hidden;rotatable=0;points=[[0,0.5],[1,0.5]];portConstraint=eastwest;" parent="6O94oGUFuKgIluvPSHn7-221" vertex="1">
          <mxGeometry y="60" width="160" height="26" as="geometry" />
        </mxCell>
        <mxCell id="6O94oGUFuKgIluvPSHn7-225" value="ho.control" style="swimlane;fontStyle=1;align=center;verticalAlign=top;childLayout=stackLayout;horizontal=1;startSize=26;horizontalStack=0;resizeParent=1;resizeParentMax=0;resizeLast=0;collapsible=1;marginBottom=0;fillColor=#f8cecc;strokeColor=#b85450;" parent="1" vertex="1">
          <mxGeometry x="-790" y="-234" width="160" height="86" as="geometry" />
        </mxCell>
        <mxCell id="6O94oGUFuKgIluvPSHn7-226" value="+ field: type" style="text;strokeColor=none;fillColor=none;align=left;verticalAlign=top;spacingLeft=4;spacingRight=4;overflow=hidden;rotatable=0;points=[[0,0.5],[1,0.5]];portConstraint=eastwest;" parent="6O94oGUFuKgIluvPSHn7-225" vertex="1">
          <mxGeometry y="26" width="160" height="26" as="geometry" />
        </mxCell>
        <mxCell id="6O94oGUFuKgIluvPSHn7-227" value="" style="line;strokeWidth=1;fillColor=none;align=left;verticalAlign=middle;spacingTop=-1;spacingLeft=3;spacingRight=3;rotatable=0;labelPosition=right;points=[];portConstraint=eastwest;" parent="6O94oGUFuKgIluvPSHn7-225" vertex="1">
          <mxGeometry y="52" width="160" height="8" as="geometry" />
        </mxCell>
        <mxCell id="6O94oGUFuKgIluvPSHn7-228" value="+ method(type): type" style="text;strokeColor=none;fillColor=none;align=left;verticalAlign=top;spacingLeft=4;spacingRight=4;overflow=hidden;rotatable=0;points=[[0,0.5],[1,0.5]];portConstraint=eastwest;" parent="6O94oGUFuKgIluvPSHn7-225" vertex="1">
          <mxGeometry y="60" width="160" height="26" as="geometry" />
        </mxCell>
      </root>
    </mxGraphModel>
  </diagram>
</mxfile>
